<?xml version="1.0" standalone="no"?>
<!DOCTYPE svg PUBLIC "-//W3C//DTD SVG 20010904//EN"
 "http://www.w3.org/TR/2001/REC-SVG-20010904/DTD/svg10.dtd">
<svg version="1.0" xmlns="http://www.w3.org/2000/svg"
 width="1536.000000pt" height="1024.000000pt" viewBox="0 0 1536.000000 1024.000000"
 preserveAspectRatio="xMidYMid meet">

<g transform="translate(0.000000,1024.000000) scale(0.100000,-0.100000)"
fill="#000000" stroke="none">
<path d="M2472 7248 c-253 -444 -411 -792 -442 -978 -25 -151 2 -311 75 -436
64 -110 199 -215 335 -260 81 -26 234 -25 325 4 287 88 462 396 401 702 -36
178 -203 539 -455 983 -62 108 -113 197 -115 197 -1 0 -57 -96 -124 -212z"/>
<path d="M6510 5340 l0 -2110 45 0 45 0 0 2110 0 2110 -45 0 -45 0 0 -2110z"/>
<path d="M7660 6514 l0 -934 120 0 120 0 0 310 0 309 58 136 c31 74 60 135 63
135 3 0 15 -35 27 -77 12 -43 68 -242 126 -443 l104 -365 127 -3 c116 -2 127
-1 121 14 -4 9 -20 69 -37 133 -30 112 -121 439 -235 837 l-54 191 116 269
c64 148 131 304 149 347 l33 78 -131 -3 -131 -3 -78 -200 c-43 -110 -113 -288
-155 -395 -42 -107 -82 -208 -89 -225 -10 -25 -13 43 -13 398 l-1 428 -120 -2
-120 -1 0 -934z"/>
<path d="M8687 7443 c-4 -3 -7 -424 -7 -935 l0 -928 115 0 115 0 0 390 0 390
108 0 c131 0 199 17 271 67 69 48 112 104 141 185 20 54 24 88 28 241 6 265
-19 372 -109 472 -61 66 -130 101 -224 115 -78 11 -428 14 -438 3z m426 -237
c42 -17 83 -66 97 -114 5 -20 10 -107 10 -192 0 -169 -8 -214 -46 -259 -31
-37 -66 -48 -176 -55 l-88 -5 0 319 0 320 85 0 c50 0 99 -6 118 -14z"/>
<path d="M4967 6673 c-8 -16 -53 -97 -100 -181 -96 -172 -171 -336 -194 -425
-30 -118 11 -265 94 -338 143 -125 377 -98 483 55 89 130 87 242 -8 455 -47
104 -235 446 -252 456 -5 3 -15 -7 -23 -22z"/>
<path d="M3932 6268 c-143 -256 -388 -710 -457 -848 -159 -318 -300 -655 -359
-858 -127 -438 -49 -783 243 -1072 200 -198 408 -279 686 -267 263 11 455 101
647 305 81 87 115 135 172 249 190 379 103 802 -349 1698 -109 216 -484 917
-500 933 -1 1 -38 -62 -83 -140z"/>
<path d="M7824 5040 c-84 -27 -152 -89 -189 -172 -26 -56 -29 -77 -33 -186 -9
-251 27 -329 282 -602 149 -159 187 -230 194 -354 6 -112 -16 -189 -61 -216
-66 -40 -158 -16 -194 52 -13 25 -18 65 -21 171 l-4 138 -112 -3 -111 -3 3
-149 c2 -117 7 -161 23 -208 49 -146 143 -215 306 -226 256 -16 405 139 407
422 0 124 -15 189 -66 285 -45 85 -78 127 -239 303 -171 185 -212 285 -180
440 22 103 116 152 186 96 44 -34 55 -75 55 -203 l0 -115 116 0 117 0 -6 128
c-8 188 -49 296 -137 357 -89 61 -229 80 -336 45z"/>
<path d="M11837 5050 c-134 -34 -214 -121 -246 -268 -15 -73 -15 -1160 0
-1234 24 -113 79 -187 172 -235 41 -20 71 -27 143 -31 151 -8 259 38 325 137
46 70 61 132 66 274 l5 127 -116 0 -116 0 0 -85 c0 -174 -36 -245 -124 -245
-39 0 -52 6 -84 34 l-37 34 -3 579 c-2 318 0 592 3 608 3 17 18 46 33 64 22
26 36 34 72 37 101 10 134 -44 135 -218 l0 -118 118 0 117 0 0 93 c0 189 -34
293 -121 371 -27 24 -70 52 -97 61 -57 19 -193 28 -245 15z"/>
<path d="M8480 4170 l0 -870 315 0 315 0 0 115 0 115 -204 0 -204 0 0 285 0
285 184 0 184 0 0 110 0 110 -185 0 -185 0 0 245 0 245 205 0 205 0 0 115 0
115 -315 0 -315 0 0 -870z"/>
<path d="M9280 4171 l0 -871 110 0 110 0 2 383 3 382 90 -3 c102 -3 123 -13
151 -69 17 -34 19 -71 24 -353 3 -173 9 -321 13 -327 6 -9 42 -13 124 -13 106
0 115 1 108 18 -5 9 -11 163 -15 342 -6 268 -10 333 -24 370 -26 70 -61 115
-105 137 l-41 21 30 12 c58 24 120 125 140 228 20 99 8 311 -21 392 -32 86
-101 158 -184 191 -56 22 -77 24 -287 27 l-228 3 0 -870z m427 623 c60 -45 68
-74 68 -239 0 -141 -1 -153 -25 -195 -34 -61 -74 -80 -172 -80 l-78 0 0 271 0
271 89 -4 c72 -2 95 -7 118 -24z"/>
<path d="M10120 5019 c0 -18 190 -1182 260 -1591 11 -64 20 -120 20 -123 0 -3
62 -4 137 -3 l137 3 38 220 c21 121 58 335 83 475 48 275 175 1025 175 1034 0
3 -53 6 -118 6 l-118 0 -43 -322 c-92 -692 -148 -1073 -154 -1038 -3 19 -40
298 -82 620 -43 322 -82 620 -88 663 l-11 77 -118 0 c-113 0 -118 -1 -118 -21z"/>
<path d="M11140 4170 l0 -870 115 0 115 0 0 870 0 870 -115 0 -115 0 0 -870z"/>
<path d="M12480 4170 l0 -870 310 0 310 0 0 115 0 115 -200 0 -200 0 0 285 0
285 175 0 175 0 0 110 0 110 -175 0 -175 0 0 245 0 245 198 0 c109 0 201 2
203 4 2 2 3 54 1 115 l-3 111 -310 0 -309 0 0 -870z"/>
</g>
</svg>
